<?xml version="1.0" encoding="utf-8"?>
<!-- Generator: Adobe Illustrator 26.0.3, SVG Export Plug-In . SVG Version: 6.00 Build 0)  -->
<svg version="1.1" id="Layer_1" xmlns="http://www.w3.org/2000/svg" xmlns:xlink="http://www.w3.org/1999/xlink" x="0px" y="0px"
	 viewBox="0 0 351.9 119.9" style="enable-background:new 0 0 351.9 119.9;" xml:space="preserve">
<style type="text/css">
	.st0{fill:#005AF9;}
	.st1{fill:#1D1D1B;}
</style>
<g>
	<g>
		<path d="M344.1,59.4c-3.8,0-6.8,3.1-6.8,6.8c0,3.8,3.1,6.8,6.8,6.8c3.8,0,6.8-3.1,6.8-6.8C350.9,62.5,347.9,59.4,344.1,59.4z
			 M350,66.3c0,3.2-2.6,5.9-5.9,5.9c-3.2,0-5.9-2.6-5.9-5.9c0-3.2,2.6-5.9,5.9-5.9C347.3,60.4,350,63,350,66.3z"/>
		<path d="M345.7,66.9c-0.1-0.1-0.2-0.2-0.4-0.3c0.6-0.1,1.1-0.3,1.4-0.7c0.4-0.4,0.5-0.8,0.5-1.4c0-0.4-0.1-0.8-0.3-1.2
			c-0.2-0.4-0.5-0.6-0.9-0.7c-0.4-0.1-0.9-0.2-1.6-0.2h-3.4v7.7h1.1v-3.3h1.1c0.2,0,0.4,0,0.5,0c0.1,0,0.3,0.1,0.4,0.2
			c0.1,0.1,0.3,0.3,0.5,0.5c0.2,0.2,0.4,0.6,0.7,1l1,1.6h1.4l-1.4-2.2C346.3,67.5,346,67.2,345.7,66.9z M345.9,65.2
			c-0.1,0.2-0.3,0.3-0.5,0.4c-0.2,0.1-0.6,0.1-1,0.1h-2.1v-2.3h2.3c0.5,0,0.9,0.1,1.2,0.3c0.2,0.2,0.4,0.5,0.4,0.8
			C346.1,64.8,346.1,65,345.9,65.2z"/>
	</g>
	<g>
		<path class="st0" d="M303.4,0.8h-13.8l-28.2,72.2h14.3l5.6-14.7h29.2l5.7,14.7h15.4L303.4,0.8z M305.4,45h-18.9l9.5-24.6L305.4,45
			z"/>
		<path class="st0" d="M263.1,33.5c0-6.5-1.2-12.3-3.7-17.1c-2.5-4.9-6.1-8.8-10.6-11.5h0c-4.5-2.7-9.9-4-15.9-4h-25.7V73h25.7
			c6,0,11.4-1.3,15.9-4c4.6-2.7,8.1-6.5,10.6-11.5c2.4-4.9,3.7-10.6,3.7-17.1V33.5z M221.2,13.9h11.7c5.4,0,9.4,1.6,12.1,4.8
			c2.8,3.3,4.2,8.3,4.2,14.8v7c0,6.6-1.4,11.6-4.3,14.8c-2.8,3.2-6.7,4.8-12,4.8h-11.7V13.9z"/>
		<path class="st0" d="M107.7,4.8L107.7,4.8c-4.4-2.6-9.6-3.8-15.4-3.8c-5.8,0-11,1.3-15.4,3.8c-4.5,2.6-8,6.3-10.4,11.1
			c-2.4,4.7-3.6,10.4-3.6,16.8v8.6c0,6.4,1.2,12,3.6,16.8c2.5,4.8,6,8.6,10.4,11.1c4.4,2.6,9.6,3.8,15.4,3.8c5.8,0,11-1.3,15.4-3.8
			c4.5-2.6,8-6.3,10.4-11.1c2.4-4.7,3.6-10.4,3.6-16.8v-8.6c0-6.4-1.2-12-3.6-16.8C115.6,11.1,112.1,7.3,107.7,4.8z M107.7,32.7v8.6
			c0,6.3-1.4,11-4.1,14.1c-2.7,3-6.4,4.5-11.4,4.5c-5.1,0-8.9-1.5-11.5-4.5c-2.6-3.1-4-7.9-4-14.1v-8.6c0-6.2,1.4-10.9,4.1-14.1v0
			c2.7-3.1,6.4-4.6,11.4-4.6c5.1,0,8.9,1.5,11.5,4.5C106.4,21.7,107.7,26.5,107.7,32.7z"/>
		<path class="st0" d="M43.2,32.9c-3.1-1.2-7.1-2.5-12.1-3.8c-3.7-0.9-6.6-1.8-8.6-2.5c-1.8-0.7-3.4-1.6-4.6-2.7
			c-1-0.9-1.4-2-1.4-3.5c0-2,0.8-3.4,2.7-4.5c2.1-1.3,5.3-1.9,9.4-1.9c3.6,0,6.5,0.7,8.6,2.1c1.8,1.2,2.7,2.9,2.7,5.2V25h14v-3.4
			c0-6.6-2.4-11.8-7.1-15.4l0,0C42.2,2.7,36,0.9,28.3,0.9c-7.6,0-13.8,1.7-18.5,5C5,9.4,2.5,14.8,2.5,21.9c0,4.4,1.2,8.1,3.6,10.9
			c2.3,2.7,5.1,4.7,8.3,5.9c2.9,1.2,6.9,2.4,11.7,3.7c3.8,1,6.8,1.9,9,2.7c1.9,0.7,3.6,1.7,4.8,3c1.1,1.1,1.6,2.5,1.6,4.3
			c0,2.3-1,3.9-3.1,5.3c-2.4,1.5-5.8,2.3-10.1,2.3c-4.4,0-7.9-0.8-10.3-2.4c-2.1-1.4-3.1-3.4-3.1-6.3l0.2-4.4h-14L1,51l0,0.1
			c0,7.1,2.5,12.6,7.4,16.4c4.8,3.6,11.4,5.5,19.8,5.5c8.4,0,15-1.8,19.8-5.4c5-3.7,7.5-9.6,7.5-17.5c0-4.6-1.3-8.3-3.8-11.2
			C49.3,36.3,46.5,34.3,43.2,32.9z"/>
		<path class="st0" d="M180.1,73c-8.3,0-15.5-5.7-17.5-13.8L152.7,18c-0.4-1.9-2.1-3.1-4-3.1c-2.2,0-4.1,1.8-4.1,4.1v47.1
			c0,3.8-3.1,7-7,7c-3.8,0-7-3.1-7-7V18.9c0-9.9,8.1-18,18-18c8.3,0,15.5,5.7,17.5,13.8l9.9,41.3c0.4,1.9,2.1,3.1,4,3.1
			c2.2,0,4.1-1.8,4.1-4.1V7.9c0-3.8,3.1-7,7-7s7,3.1,7,7V55C198.1,64.9,190.1,73,180.1,73z"/>
	</g>
	<g>
		<path class="st1" d="M101.9,110.1h-3.3v-8.7c0-1.7-0.3-2.9-1-3.9c-0.7-0.9-1.6-1.4-2.8-1.4c-1.2,0-2.2,0.5-2.9,1.4
			c-0.7,0.9-1.1,2.2-1.1,3.8v8.7h-3.3v-8.7c0-1.7-0.3-2.9-1-3.9c-0.7-0.9-1.6-1.4-2.9-1.4c-1.2,0-2.2,0.5-2.9,1.4
			c-0.7,0.9-1.1,2.2-1.1,3.8v8.7h-3.3V93.5h2.6l0.1,2.9c0.5-1.1,1.3-1.9,2.2-2.4c0.9-0.6,2-0.8,3.2-0.8c1.3,0,2.4,0.3,3.4,0.9
			c0.9,0.6,1.6,1.5,2.1,2.6c0.5-1.1,1.3-2,2.2-2.6c0.9-0.6,2.1-0.9,3.4-0.9c2,0,3.5,0.7,4.6,2c1.1,1.3,1.7,3.1,1.7,5.5V110.1z"/>
		<path class="st1" d="M118.8,110.1H116l-0.2-2.1c-0.6,0.8-1.3,1.4-2.2,1.8c-0.9,0.4-1.9,0.7-3,0.7c-1.1,0-2.2-0.2-3-0.7
			c-0.9-0.5-1.6-1.1-2.1-1.9c-0.5-0.8-0.8-1.7-0.8-2.8c0-1.1,0.3-2,0.8-2.9c0.6-0.8,1.3-1.5,2.3-2c1-0.5,2-0.7,3.3-0.7
			c0.8,0,1.5,0.1,2.3,0.3c0.8,0.2,1.5,0.5,2.1,0.8V100c0-0.8-0.2-1.5-0.6-2.1c-0.4-0.6-0.9-1-1.6-1.3c-0.7-0.3-1.4-0.5-2.3-0.5
			c-0.7,0-1.5,0.1-2.2,0.4c-0.8,0.3-1.5,0.7-2.1,1.2l-1-2.8c1-0.6,2-1.1,3-1.4c1-0.3,2.1-0.5,3.1-0.5c1.4,0,2.7,0.3,3.7,0.9
			c1,0.6,1.9,1.5,2.4,2.6c0.6,1.1,0.9,2.4,0.9,3.9V110.1z M111.3,107.6c0.8,0,1.5-0.2,2.1-0.5c0.6-0.3,1.2-0.8,1.6-1.4
			c0.4-0.6,0.6-1.3,0.6-2.1v-0.2c-0.5-0.4-1.2-0.8-1.8-1c-0.7-0.2-1.4-0.4-2.1-0.4c-1.1,0-2,0.3-2.7,0.8c-0.7,0.5-1.1,1.2-1.1,2.1
			c0,0.5,0.1,1,0.4,1.4c0.3,0.4,0.7,0.7,1.2,1C110.1,107.4,110.6,107.6,111.3,107.6z"/>
		<path class="st1" d="M125.7,110.1h-3.3v-25h3.3V102l1.4-1.7l6.2-6.8h4.1l-6.6,7.3l7.5,9.4H134l-5.5-7l-2.8,3V110.1z"/>
		<path class="st1" d="M154.4,108.1c-2,1.5-4.2,2.3-6.5,2.3c-1.7,0-3.2-0.4-4.5-1.2c-1.3-0.8-2.4-1.8-3.2-3.2
			c-0.8-1.3-1.2-2.9-1.2-4.6c0-1.6,0.4-3.1,1.1-4.3c0.7-1.3,1.7-2.3,2.9-3c1.2-0.7,2.6-1.1,4.2-1.1c1.6,0,3,0.4,4.3,1.2
			c1.2,0.8,2.2,1.9,2.9,3.3c0.7,1.4,1,3.1,1,5v0.5h-12.8c0.2,0.9,0.6,1.6,1.1,2.3c0.5,0.7,1.2,1.2,2,1.5c0.8,0.4,1.7,0.5,2.7,0.5
			c1.8,0,3.4-0.6,4.9-1.8L154.4,108.1z M142.4,100.8h9.9c-0.1-0.9-0.4-1.7-0.8-2.4c-0.4-0.7-1-1.2-1.7-1.6c-0.7-0.4-1.5-0.6-2.4-0.6
			c-0.9,0-1.7,0.2-2.4,0.6c-0.7,0.4-1.3,0.9-1.7,1.6C142.8,99.1,142.5,99.9,142.4,100.8z"/>
		<path class="st1" d="M166.9,89c-0.6,0-1.1-0.2-1.5-0.6c-0.4-0.4-0.6-0.9-0.6-1.5c0-0.6,0.2-1.1,0.6-1.5c0.4-0.4,0.9-0.6,1.5-0.6
			c0.6,0,1.1,0.2,1.5,0.6c0.4,0.4,0.6,0.9,0.6,1.5c0,0.6-0.2,1.1-0.6,1.5C168,88.8,167.5,89,166.9,89z"/>
		<rect x="165.3" y="93.5" class="st1" width="3.3" height="16.7"/>
		<path class="st1" d="M182.4,109.7c-1.1,0.5-2.2,0.8-3.2,0.8c-1,0-2-0.2-2.7-0.7c-0.8-0.5-1.4-1.1-1.8-2s-0.7-1.8-0.7-2.9v-8.3
			h-2.8v-3.1h2.9v-4.2h3.1v4.2h4.7v3.1h-4.7v7.7c0,1,0.3,1.8,0.8,2.3c0.5,0.6,1.2,0.9,2,0.9c0.7,0,1.3-0.2,2-0.6L182.4,109.7z"/>
		<path class="st1" d="M206.3,108.1c-2,1.5-4.2,2.3-6.5,2.3c-1.7,0-3.2-0.4-4.5-1.2c-1.3-0.8-2.4-1.8-3.2-3.2
			c-0.8-1.3-1.2-2.9-1.2-4.6c0-1.6,0.4-3.1,1.1-4.3c0.7-1.3,1.7-2.3,2.9-3c1.2-0.7,2.6-1.1,4.2-1.1c1.6,0,3,0.4,4.3,1.2
			c1.2,0.8,2.2,1.9,2.9,3.3c0.7,1.4,1,3.1,1,5v0.5h-12.8c0.2,0.9,0.6,1.6,1.1,2.3c0.5,0.7,1.2,1.2,2,1.5c0.8,0.4,1.7,0.5,2.7,0.5
			c1.8,0,3.4-0.6,4.9-1.8L206.3,108.1z M194.3,100.8h9.9c-0.1-0.9-0.4-1.7-0.8-2.4s-1-1.2-1.7-1.6c-0.7-0.4-1.5-0.6-2.4-0.6
			c-0.9,0-1.7,0.2-2.4,0.6c-0.7,0.4-1.3,0.9-1.7,1.6C194.7,99.1,194.4,99.9,194.3,100.8z"/>
		<path class="st1" d="M223.3,110.1h-2.8l-0.2-2.1c-0.6,0.8-1.3,1.4-2.2,1.8c-0.9,0.4-1.9,0.7-3,0.7c-1.1,0-2.2-0.2-3-0.7
			c-0.9-0.5-1.6-1.1-2.1-1.9c-0.5-0.8-0.8-1.7-0.8-2.8c0-1.1,0.3-2,0.8-2.9c0.6-0.8,1.3-1.5,2.3-2c1-0.5,2-0.7,3.3-0.7
			c0.8,0,1.5,0.1,2.3,0.3c0.8,0.2,1.5,0.5,2.1,0.8V100c0-0.8-0.2-1.5-0.6-2.1c-0.4-0.6-0.9-1-1.6-1.3c-0.7-0.3-1.4-0.5-2.3-0.5
			c-0.7,0-1.5,0.1-2.2,0.4c-0.8,0.3-1.5,0.7-2.1,1.2l-1-2.8c1-0.6,2-1.1,3-1.4c1-0.3,2.1-0.5,3.1-0.5c1.4,0,2.7,0.3,3.7,0.9
			c1,0.6,1.9,1.5,2.4,2.6c0.6,1.1,0.9,2.4,0.9,3.9V110.1z M215.8,107.6c0.8,0,1.5-0.2,2.1-0.5c0.6-0.3,1.2-0.8,1.6-1.4
			c0.4-0.6,0.6-1.3,0.6-2.1v-0.2c-0.5-0.4-1.2-0.8-1.8-1c-0.7-0.2-1.4-0.4-2.1-0.4c-1.1,0-2,0.3-2.7,0.8c-0.7,0.5-1.1,1.2-1.1,2.1
			c0,0.5,0.1,1,0.4,1.4c0.3,0.4,0.7,0.7,1.2,1C214.6,107.4,215.2,107.6,215.8,107.6z"/>
		<path class="st1" d="M225.8,108.7l0.8-3.1c0.4,0.4,0.8,0.7,1.3,1c0.5,0.3,1,0.5,1.6,0.7c0.6,0.2,1.1,0.2,1.7,0.2
			c0.9,0,1.6-0.2,2.1-0.6c0.5-0.4,0.8-0.9,0.8-1.6c0-0.5-0.1-0.9-0.4-1.2c-0.3-0.3-0.7-0.6-1.2-0.8c-0.5-0.2-1-0.5-1.6-0.7
			c-0.7-0.3-1.4-0.6-2.1-1c-0.7-0.4-1.3-0.9-1.8-1.5c-0.5-0.6-0.7-1.4-0.7-2.4c0-1,0.2-1.8,0.7-2.5c0.5-0.7,1.1-1.3,2-1.6
			c0.8-0.4,1.8-0.6,2.9-0.6c1.7,0,3.4,0.4,5.1,1.3l-1,2.9c-0.3-0.3-0.7-0.5-1.2-0.7c-0.5-0.2-0.9-0.4-1.4-0.5
			c-0.5-0.1-0.9-0.2-1.4-0.2c-0.7,0-1.2,0.2-1.7,0.5c-0.4,0.3-0.6,0.8-0.6,1.3c0,0.3,0.1,0.6,0.3,0.9c0.2,0.3,0.5,0.5,1,0.8
			c0.4,0.3,1,0.6,1.8,0.9c0.7,0.3,1.4,0.6,2.2,1c0.7,0.4,1.3,0.9,1.8,1.5c0.5,0.6,0.7,1.4,0.7,2.5c0,1-0.3,1.9-0.8,2.6
			c-0.5,0.8-1.2,1.4-2.1,1.8c-0.9,0.4-2,0.6-3.2,0.6C229.4,110.5,227.6,109.9,225.8,108.7z"/>
		<path class="st1" d="M246.3,118.5h-3.5l3.3-8.4l-7.8-16.6h3.7l5.7,12.7l5-12.7h3.5L246.3,118.5z"/>
	</g>
</g>
</svg>
